Land_normalized_Motion_pl04
version=1
nRows=16
nColumns=43
inDegrees=yes
endheader
time		pelvis_tilt		pelvis_list		pelvis_rotation		pelvis_tx		pelvis_ty		pelvis_tz		hip_flexion_r		hip_adduction_r		hip_rotation_r		knee_angle_r		ankle_angle_r		subtalar_angle_r		mtp_angle_r		hip_flexion_l		hip_adduction_l		hip_rotation_l		knee_angle_l		ankle_angle_l		subtalar_angle_l		mtp_angle_l		lumbar_extension		lumbar_bending		lumbar_rotation		neck_flexion		neck_lateral_bending		neck_rotation		arm_flex_r		arm_add_r		arm_rot_r		elbow_flex_r		pro_sup_r		wrist_flex_r		wrist_dev_r		hand_finger_flex_r		arm_flex_l		arm_add_l		arm_rot_l		elbow_flex_l		pro_sup_l		wrist_flex_l		wrist_dev_l		hand_finger_flex_l		
1.170000		2.799736		-10.239175		85.391699		0.024945		0.500222		0.512671		100.973732		-1.452695		-5.927390		-121.179559		14.097788		7.631612		21.324119		95.931014		-14.185606		1.198935		-125.941446		21.630048		2.002603		35.298826		-65.228081		0.572738		1.086817		25.747731		-7.958520		8.275927		82.171882		-33.202352		27.762365		72.189564		133.061226		-4.989435		-3.061305		-30.063098		60.746825		-50.872533		4.521968		84.124518		122.560653		-16.084769		-1.527658		20.776268		
1.173182		2.800735		-10.653422		85.228060		0.025080		0.497460		0.511992		101.629599		-1.430611		-6.105846		-121.435184		14.242683		7.423821		21.377013		96.387464		-14.416662		1.140342		-126.212349		22.303479		1.826608		35.217833		-65.181827		0.523434		1.068418		25.856325		-8.125665		8.339168		83.647721		-32.388108		28.401335		72.048715		133.098112		-4.683674		-3.025157		-30.028203		62.137353		-51.273839		5.296306		84.375427		122.725370		-15.808577		-1.532606		20.872892		
1.176364		2.806948		-11.019248		84.999363		0.025298		0.494603		0.511361		102.263270		-1.404363		-6.333184		-121.705997		14.285135		7.242656		21.449477		96.807428		-14.719023		1.130534		-126.508001		22.909318		1.788381		35.026650		-65.143122		0.386929		1.068022		25.962959		-8.228549		8.436085		85.032476		-31.670165		29.054549		71.961316		133.007560		-4.472143		-2.983145		-30.097140		63.583042		-51.718923		6.206735		84.707408		122.837311		-15.566669		-1.491994		20.962239		
1.179545		2.820146		-11.408395		84.749788		0.025575		0.492021		0.510761		102.892884		-1.395267		-6.571195		-121.953871		14.340066		7.206888		21.547654		97.223233		-15.036362		1.165748		-126.773220		23.520824		1.862744		34.776703		-65.104256		0.224396		1.134016		26.148962		-8.255239		8.478587		86.345120		-30.966345		29.594234		71.870252		132.800709		-4.361351		-2.966620		-30.233773		65.053858		-52.060068		7.124193		85.006882		122.878569		-15.379232		-1.442314		21.024584		
1.182727		2.852273		-11.788276		84.521520		0.025805		0.489626		0.510186		103.471046		-1.383235		-6.754449		-122.186582		14.435394		7.363663		21.660304		97.631908		-15.347081		1.232679		-127.024807		24.112071		2.052339		34.498441		-65.081825		0.076439		1.232957		26.374929		-8.225912		8.488114		87.606230		-30.312267		30.087527		71.798063		132.518236		-4.321933		-3.020640		-30.395972		66.561270		-52.347973		8.091650		85.284654		122.862807		-15.211837		-1.419943		21.054933		
1.185909		2.870607		-12.059930		84.336569		0.026057		0.487557		0.509570		103.901117		-1.368638		-6.838282		-122.414217		14.615840		7.722425		21.798282		97.919511		-15.611805		1.327696		-127.258026		24.686909		2.423738		34.087790		-65.169693		-0.091529		1.337061		26.611220		-8.068546		8.445663		88.810698		-29.785144		30.593599		71.762391		132.027192		-4.456781		-3.116024		-30.668571		68.249861		-52.543323		9.271104		85.502213		122.662022		-15.170725		-1.339132		20.979124		
1.189091		2.886772		-12.290822		84.205535		0.026131		0.485638		0.508858		104.254363		-1.381144		-6.856800		-122.645294		14.846195		8.114869		21.931305		98.154656		-15.817381		1.398683		-127.485150		25.259624		2.770727		33.636861		-65.294632		-0.214555		1.435676		26.853616		-7.904233		8.345073		89.978347		-29.326974		31.098652		71.765735		131.507565		-4.629123		-3.220985		-30.952476		69.914096		-52.673993		10.458077		85.709495		122.388613		-15.215283		-1.265373		20.852308		
1.192273		2.935492		-12.509157		84.144234		0.025935		0.483707		0.508039		104.569711		-1.445859		-6.841585		-122.893122		15.129318		8.576379		22.012380		98.409914		-15.906331		1.521269		-127.724751		25.738963		3.015199		33.469127		-65.428552		-0.226845		1.505584		27.167162		-7.834111		8.324054		91.159410		-28.826500		31.580233		71.755352		131.343693		-4.692721		-3.376935		-31.063440		71.382983		-52.845893		11.449243		86.006191		122.325583		-15.105471		-1.368659		20.793608		
1.195455		2.943148		-12.492052		84.133674		0.025839		0.482369		0.507063		104.600752		-1.518532		-6.737142		-123.146975		15.500815		9.193711		22.060637		98.380443		-15.988073		1.605035		-127.963716		26.172466		3.560954		33.118726		-65.785182		-0.325010		1.597393		27.375555		-7.479250		8.191321		92.247738		-28.562729		32.123347		71.763856		130.800044		-5.174015		-3.473063		-31.413317		73.300857		-52.791878		12.956862		86.063567		121.852428		-15.379010		-1.229720		20.486067		
1.198636		3.026596		-12.616785		84.156101		0.025497		0.480566		0.506061		104.789379		-1.587331		-6.701379		-123.408352		15.817941		9.528071		22.079344		98.606446		-15.981481		1.786035		-128.263097		26.541738		3.801197		33.020808		-65.968995		-0.272860		1.692376		27.629618		-7.376608		8.130356		93.347795		-28.185418		32.654072		71.786260		130.716420		-5.287413		-3.608441		-31.495812		74.718467		-52.819100		13.929017		86.313092		121.769401		-15.376755		-1.315782		20.409425		
1.201818		3.125418		-12.631087		84.202510		0.025195		0.479042		0.505022		104.831417		-1.702053		-6.722807		-123.662506		16.172651		9.901244		22.079949		98.743621		-15.964966		2.012146		-128.568395		26.794811		4.214793		32.931476		-66.246342		-0.240340		1.830427		27.793432		-7.160369		8.057658		94.412284		-27.891304		33.206463		71.768004		130.610883		-5.568100		-3.705148		-31.648863		76.279750		-52.717016		15.050968		86.453341		121.644891		-15.461643		-1.336291		20.295137		
1.205000		3.270141		-12.581654		84.270762		0.024932		0.477457		0.503892		104.820062		-1.793425		-6.773517		-123.949709		16.511742		10.160956		22.033648		98.900125		-15.956129		2.306206		-128.965695		26.955142		4.672510		32.834239		-66.537238		-0.194150		2.034171		27.877089		-6.900166		7.945903		95.402119		-27.682969		33.805234		71.758731		130.473247		-5.954356		-3.741041		-31.826831		77.872605		-52.548563		16.292958		86.517484		121.507617		-15.645869		-1.313352		20.174840		
1.208182		3.343482		-12.623764		84.269564		0.024584		0.475868		0.502881		104.921058		-1.888094		-6.860468		-124.198562		16.749208		10.199936		21.996411		99.149268		-15.937378		2.518325		-129.336667		27.008045		4.919962		32.790045		-66.705038		-0.184553		2.179288		27.922440		-6.736675		7.860410		96.251390		-27.264160		34.114877		71.658086		130.422439		-6.159455		-3.701150		-31.898355		79.046393		-52.172439		16.920638		86.602684		121.477865		-15.773937		-1.307293		20.122062		
1.211364		3.515174		-12.556459		84.333808		0.024422		0.474415		0.501883		104.866734		-1.998019		-7.055654		-124.453470		17.088340		10.244533		21.893858		99.382641		-15.915423		2.890879		-129.760490		27.010210		5.389558		32.687799		-66.968833		-0.160806		2.437906		27.887693		-6.453573		7.707986		97.162036		-27.120724		34.741366		71.590332		130.301847		-6.607838		-3.651150		-32.049525		80.626779		-51.933937		18.220135		86.614178		121.423519		-16.013339		-1.262021		20.050034		
1.214545		3.591297		-12.639091		84.376804		0.024068		0.472790		0.501059		104.980990		-2.125038		-7.194064		-124.680812		17.473581		10.154425		21.854185		99.805282		-15.831784		3.132841		-130.150687		26.728884		5.632529		32.617719		-67.059903		-0.096706		2.512625		27.740808		-6.374746		7.641191		98.096383		-26.786759		35.354380		71.445010		130.378888		-6.624420		-3.689567		-32.003182		81.873564		-51.861655		19.144398		86.727457		121.552104		-15.933836		-1.350938		20.105546		
1.217727		3.627344		-12.695251		84.398560		0.023698		0.471404		0.500248		105.067410		-2.205489		-7.274982		-124.869347		17.727135		10.060619		21.822113		100.170560		-15.766551		3.268557		-130.536863		26.533220		5.772595		32.580872		-67.153424		-0.056892		2.564427		27.713379		-6.258957		7.582832		98.830480		-26.285339		35.650996		71.208290		130.399325		-6.663472		-3.635939		-31.981726		82.914632		-51.505231		19.686346		86.707015		121.605618		-15.937996		-1.361185		20.108926		
